<?xml version="1.0" encoding="iso-8859-1"?>
<!-- Generator: Adobe Illustrator 19.0.0, SVG Export Plug-In . SVG Version: 6.00 Build 0)  -->
<svg version="1.1" id="Capa_1" xmlns="http://www.w3.org/2000/svg" xmlns:xlink="http://www.w3.org/1999/xlink" x="0px" y="0px"
	 viewBox="0 0 512 512" style="enable-background:new 0 0 512 512;" xml:space="preserve">
<g>
	<g>
		<path d="M467.692,251.077h-59.077v-29.538h34.462c24.431,0,44.308-19.876,44.308-44.308V98.462
			c0-24.431-19.876-44.308-44.308-44.308H68.923c-24.431,0-44.308,19.876-44.308,44.308v78.769
			c0,24.431,19.876,44.308,44.308,44.308h34.462v29.538H44.308C19.876,251.077,0,270.953,0,295.385v19.692
			c0,24.431,19.876,44.308,44.308,44.308v64c0,19.002,15.459,34.461,34.462,34.461h19.692c19.002,0,34.462-15.459,34.462-34.461v-64
			h246.154v64c0,19.002,15.459,34.461,34.462,34.461h19.692c19.002,0,34.462-15.459,34.462-34.461v-64
			c24.431,0,44.308-19.876,44.308-44.308v-19.692C512,270.953,492.124,251.077,467.692,251.077z M68.923,192
			c-8.144,0-14.769-6.625-14.769-14.769V98.462c0-8.144,6.625-14.769,14.769-14.769h374.154c8.144,0,14.769,6.625,14.769,14.769
			v78.769c0,8.144-6.625,14.769-14.769,14.769H68.923z M379.077,221.538v29.538H132.923v-29.538H379.077z M103.385,423.385
			c0,2.715-2.208,4.923-4.923,4.923H78.769c-2.715,0-4.923-2.208-4.923-4.923v-64h29.539V423.385z M438.154,423.385
			c0,2.715-2.209,4.923-4.923,4.923h-19.692c-2.715,0-4.923-2.208-4.923-4.923v-64h29.539V423.385z M482.462,315.077
			c0,8.144-6.625,14.769-14.769,14.769H44.308c-8.144,0-14.769-6.625-14.769-14.769v-19.692c0-8.144,6.625-14.769,14.769-14.769
			h423.385c8.144,0,14.769,6.625,14.769,14.769V315.077z"/>
	</g>
</g>
<g>
</g>
<g>
</g>
<g>
</g>
<g>
</g>
<g>
</g>
<g>
</g>
<g>
</g>
<g>
</g>
<g>
</g>
<g>
</g>
<g>
</g>
<g>
</g>
<g>
</g>
<g>
</g>
<g>
</g>
</svg>
